<svg xmlns="http://www.w3.org/2000/svg" width="463" height="398" fill="none"><path fill="#3C3C3C" d="M176.619 346.829v-8.933l14.848-7.224 22.316-10.871 33.384-16.248v-26.094h-15.144l-22.271 12.283-10.998 6.062-22.135 12.215v15.178l-20.13-10.141-17.375 8.682-33.065 16.523v59.616h52.17l-.318-30.264 53.901 30.264h35.365v-15.474l-70.548-35.551v-.023ZM211.346 198.792h-34.705l37.141 18.709 9.041 4.558 15.212-7.611 7.765-3.874 1.366-.684v-26.322l-9.61-4.831-2.755-1.39-12.957-6.518-8.084-4.056-37.164-18.733v-8.933l14.847-7.225 22.317-10.87 33.383-16.249V78.669H232l-22.271 12.284-10.999 6.062-22.134 12.192v15.2l-20.131-10.141-17.375 8.683-33.065 16.522v55.424-7.589 11.759h52.171v-.729l-.091-8.842-.228-20.67 53.446 30.013.023-.045ZM.023 277.458h67.792l-34.408-17.342-15.394-7.749L0 261.369v16.089h.023ZM67.838 78.669 33.43 61.326l-15.394-7.748L.023 62.579v16.09H67.838ZM356.951 277.457h67.815l-3.894-1.96-15.713-7.907-30.195-15.201-18.013 9.002v16.089-.023ZM424.766 78.669l-3.917-1.96-45.885-23.131-18.013 9.001v16.09h67.815ZM418.755 0l-42.948 23.678.046-4.558L376.08 0h-19.105v44.872l18.012 8.683 88.014-42.844V0h-44.246ZM222.824 23.268l24.343-12.17V0h-70.524l37.141 18.71 9.04 4.558Z"/><path fill="#3C3C3C" d="m176.597 244.345-18.377-9.275-4.349-2.188-47.844-24.088V198.79H61.804l-42.948 23.678.273-23.678H.023v44.872l18.013 8.705 15.394-7.498 72.62-35.369v47.311l36.23 20.647h-36.23v11.235l33.065 15.953 17.375 8.386 12.023-5.857 8.13-3.942v-30.652l26.78-14.767 10.384-5.72 8.334-4.581-.136 11.326-.205 18.619h25.391v-43.641l-21.907-10.575-2.437-1.185-46.204 22.288h-.046ZM291.482 60.186l54.88-26.731 10.589-5.15V0h-41.058l-4.304 2.37-25.208 13.902V62.67l5.078-2.46.023-.024ZM176.597 45.533 158.22 36.28l-52.17-26.276V0H61.827L18.856 23.678 19.129 0H.023v44.872l18.013 8.683L33.43 46.08l72.62-35.37v47.311l36.23 20.647h-36.23v11.236l33.065 15.975 17.375 8.386 12.023-5.857 8.13-3.965V73.792l26.78-14.768 10.384-5.72 8.334-4.603-.136 11.326-.205 18.619h25.391V35.027l-21.907-10.574-2.437-1.185-46.204 22.265h-.046ZM288.498 397.855h68.453v-13.993l-20.131-10.141-30.082 15.041-18.217 9.116-.023-.023ZM342.377 318.753l-4.077 2.256.046-4.284.273-23.177.182-15.816v-.273h-52.375v71.9l50.417 24.362 6.057-2.94 14.096-6.86v-53.19l-10.589 5.834-3.985 2.211-.045-.023ZM402.268 207.882l-26.461 14.586.046-4.558.227-19.12h-19.105v44.872l18.012 8.705 1.89-.912 56.908-27.711 29.216-14.221v-10.711h-44.223l-16.487 9.093-.023-.023ZM336.821 174.906l-30.081 15.041-16.783 8.386-1.435.729h26.917l-3.826 2.12-25.209 13.901v46.399l5.078-2.461 46.842-22.812 6.331-3.077 1.708-.843 10.589-5.15v-42.046l-8.426-4.239-11.705-5.903v-.045Z"/><path fill="#3C3C3C" d="m342.377 119.964-4.077 2.256.046-4.285.455-39.266h-52.375v71.9l50.417 24.362 6.057-2.94 14.096-6.859v-53.19l-10.589 5.834-3.985 2.188h-.045Z"/></svg>