<svg xmlns="http://www.w3.org/2000/svg" width="256" height="439" fill="none"><path stroke="#fff" stroke-miterlimit="10" d="m10.904 139.088 8.434 4.248 18.87 9.48H1.025v-8.798l9.879-4.93Zm0 0-9.879-4.753v-24.548h10.487l-.152 12.944 23.556-12.944H59.18v5.461l26.24 13.172 2.382 1.188 10.08 5.081v.026l25.355-12.186 1.343.657 12.006 5.79v23.866h-13.931l.126-10.189.076-6.194-4.584 2.503-5.699 3.135-14.691 8.065v16.762l-4.458 2.148-6.586 3.211-9.523-4.576-18.136-8.722v-6.143h19.858L59.18 141.541v-25.889l-39.843 19.341-8.434 4.095Zm0-108.761 8.434 4.247 18.87 9.48H1.025v-8.797l9.879-4.93Zm0 0-9.879-4.753V1.025h10.487L11.36 13.97 34.916 1.025H59.18v5.461l28.622 14.385 10.08 5.057 25.355-12.186M10.904 30.327l8.434-4.096 39.843-19.34v25.888l19.858 11.3H59.18v6.144l18.136 8.748 9.523 4.576 6.586-3.211 4.458-2.174V41.4l14.691-8.065 5.699-3.135 4.584-2.528-.076 6.194-.126 10.189h13.931V20.189l-12.006-5.79-1.343-.657m0 0 13.349-6.65V1.026H97.909l20.365 10.24 4.964 2.502v-.025Zm73.556 204.908h-37.538l-.025-.025 10.005-4.981 16.514-8.217 11.044 5.562v7.661Zm0 0h10.486l-.152 10.466v2.503l23.556-12.944v-.025h24.265v5.865l-48.277 23.436-9.878-4.753V218.65Zm0 0v15.497l-5.801 2.832-30.116 14.613-2.786 1.34v-25.383l13.83-7.61 2.355-1.289h22.518Zm-109.98 62.547 11.044 5.562v-8.318l12.133-6.674 6.028-3.312 12.209-6.725h8.308v14.284l-18.313 8.899-12.234 5.941-8.156 3.944v4.88l20.39 10.239 4.433 2.224 7.092 3.565 1.519.759 5.269 2.654v14.385l-.735.38-4.255 2.123-8.333 4.146-4.965-2.477-20.364-10.239H116.906v.025L87.6 311.054l.127 11.301.05 4.854v.405H59.156v-6.447 4.146-30.338l18.135-9.025 9.524-4.753Zm0 0-9.523-4.576-18.135-8.748v-6.143h19.858l-19.858-11.301V224.54l-39.843 19.341-8.435 4.096m75.937 33.22 6.585-3.211 4.458-2.174V259.05l14.691-8.065 5.699-3.135 4.585-2.528-.076 6.194-.127 10.188h13.931v-23.865l-12.006-5.79-1.342-.657M10.878 356.738l8.435 4.248 18.87 9.48H1v-8.798l9.878-4.93Zm0 0L1 351.985v-24.548h10.486l-.152 12.944 23.556-12.944h24.266v5.461l26.24 13.171 2.381 1.189 10.081 5.081v.025l25.355-12.185 1.342.657 12.006 5.79v23.865H122.63l.127-10.188.076-6.194-4.585 2.503-5.699 3.135-14.69 8.065v16.761l-4.459 2.149-6.585 3.211-9.524-4.576-18.135-8.722v-6.144h19.858l-19.858-11.3v-25.889l-39.843 19.341-8.435 4.095Zm0-108.761 8.435 4.247 18.87 9.48H1v-8.798l9.878-4.929Zm0 0L1 243.224v-24.549h10.486l-.152 12.944 23.556-12.944h24.266v5.461l28.621 14.385 10.081 5.057 25.355-12.186m0 0 13.348-6.649v-6.068H97.884l20.364 10.239 4.965 2.503v-.025ZM196.768 436.3h-37.537l-.026-.026 10.005-4.98 16.515-8.217 11.043 5.562v7.661Zm0 0h-22.517l-2.356 1.289m-35.359-1.264H97.858m.026-245.561v-4.879l8.156-3.944L118.274 176l18.313-8.899v-14.285h-8.308l-12.209 6.725-6.028 3.312-12.133 6.675v8.317l-11.043-5.536-9.524 4.752-18.136 9.026V218.7h28.622l-.177-16.559L117.21 218.7h19.402v-8.469l-38.703-19.442-.025-.025Zm19.047-80.977H97.884l20.364 10.239 4.965 2.478 8.333-4.147 4.255-2.123.735-.379v-14.386l-5.269-2.654-1.519-.759-7.092-3.564-4.433-2.225-20.39-10.24v-4.879l8.156-3.944 12.234-5.94 18.313-8.9V44.08h-8.308l-12.209 6.725-6.028 3.312-12.133 6.674v8.318l-11.043-5.562L77.29 68.3l-18.135 9.025v30.338-4.146 6.447h28.621v-.405l-.05-4.854-.127-11.3 29.306 16.407.025-.025Zm79.863 43.029h37.183l-2.153-1.087-8.612-4.323-16.565-8.318-9.879 4.93v8.798h.026Zm37.208-108.761-2.153-1.087-25.177-12.641-9.878 4.93v8.798h37.208Zm-3.293-43.03L207.153 13.97v-2.502L207.305 1h-10.486v24.549l9.878 4.752 48.278-23.436v-5.84h-24.266Zm-69.807 32.917 30.117-14.613 5.8-2.831V1.025h-22.517l-2.356 1.29-13.83 7.61v25.382l2.786-1.34v-.025Zm27.888 141.451-2.229 1.239v-2.352l.177-12.666.101-8.646v-.152h-28.723v39.339l27.66 13.323 3.318-1.618 7.725-3.767v-29.099l-5.8 3.185-2.204 1.214h-.025Zm32.852-60.651-14.514 7.989v-2.503l.152-10.466h-10.486v24.548l9.878 4.753 1.039-.506 31.205-15.143 16.033-7.787v-5.865h-24.265l-9.042 4.98ZM185.75 96.716l-16.514 8.217-9.195 4.576-.785.404h14.767l-2.102 1.163-13.83 7.61v25.383l2.786-1.34 25.684-12.489 3.47-1.694.937-.455 5.8-2.832v-23.006l-4.635-2.326-6.433-3.236.05.025Zm3.04-30.06-2.229 1.24v-2.352l.278-21.49h-28.723v39.339l27.66 13.323 3.318-1.618 7.725-3.767V62.232l-5.8 3.186-2.204 1.213-.025.025ZM97.858 408.414v-4.879l8.156-3.944 12.234-5.942 18.313-8.899v-14.284h-8.308l-12.208 6.725-6.029 3.312-12.132 6.674v8.318l-11.044-5.537-9.523 4.753-18.136 9.026v32.613h28.622l-.178-16.559 29.559 16.559h19.403v-8.469l-38.703-19.442-.026-.025Zm98.91-37.948h37.184l-2.153-1.087-8.612-4.323-16.566-8.318-9.878 4.93v8.798h.025Zm37.209-108.762-2.153-1.087-25.177-12.64-9.879 4.929v8.798h37.209Zm-45.213 131.339-2.229 1.238v-2.351l.178-12.666.101-8.646v-.152h-28.723v39.338l27.659 13.324 3.318-1.618 7.726-3.767v-29.099l-5.801 3.185-2.203 1.214h-.026Zm32.852-60.651-14.513 7.989v-2.503l.152-10.467h-10.487v24.549l9.879 4.753 1.038-.506 31.206-15.143 16.033-7.787v-5.866h-24.265l-9.043 4.981Zm-35.891-18.026-16.515 8.217-9.194 4.576-.785.404h14.767l-2.103 1.163-13.829 7.61v25.383l2.786-1.34 25.683-12.489 3.471-1.694.937-.455 5.8-2.832v-23.006l-4.635-2.326-6.434-3.236.051.025Zm3.039-30.06-2.229 1.239v-2.351l.279-21.49h-28.723v39.339l27.659 13.323 3.318-1.618 7.726-3.767v-29.099l-5.801 3.185-2.203 1.214-.026.025Z"/></svg>