<svg xmlns="http://www.w3.org/2000/svg" width="500" height="831" fill="none"><mask id="a" width="157" height="175" x="144" y="381" maskUnits="userSpaceOnUse" style="mask-type:alpha"><path fill="#D9D9D9" d="M144 381h156.212v174.034H144z"/></mask><g mask="url(#a)"><path fill="#383838" d="M9.713 554.958h-99.895V377.603l95.755-47.796 294.64 148.307v76.921h-78.139L8.283 433.315l1.355 121.72.075-.077Z"/></g><mask id="b" width="103" height="175" x="159" y="0" maskUnits="userSpaceOnUse" style="mask-type:alpha"><path fill="#D9D9D9" d="M159 0h102.077v174.034H159z"/></mask><g fill="#383838" mask="url(#b)"><path d="M235.095 222.965H159v-135.1l72.941-36.408L456.383 164.43v58.593H396.86l-162.855-92.719 1.032 92.719.058-.058ZM235.095-114.395H159V16.246l72.941 35.207L456.383-57.735v-56.66H396.86l-162.798 89.66 1.033-89.66Z"/></g><mask id="c" width="158" height="175" x="318" y="625" maskUnits="userSpaceOnUse" style="mask-type:alpha"><path fill="#D9D9D9" d="M318 625h157.358v174.034H318z"/></mask><g fill="#383838" mask="url(#c)"><path d="M368.295 847.979H318v-89.295l48.211-24.064 148.346 74.67v38.728h-39.342l-107.64-61.284.682 61.284.038-.039ZM368.295 625H318v86.348l48.211 23.27 148.346-72.168V625h-39.342l-107.602 59.261.682-59.261Z"/></g><mask id="d" width="103" height="175" x="30" y="656" maskUnits="userSpaceOnUse" style="mask-type:alpha"><path fill="#D9D9D9" d="M30 656h102.077v174.034H30z"/></mask><g fill="#383838" mask="url(#d)"><path d="M94.757 943.09H30V828.12l62.073-30.984 191 96.14v49.864h-50.654l-138.59-78.905.879 78.905.049-.05Z"/><path d="M94.757 656H30v111.175l62.073 29.962 191-92.919V656h-50.654l-138.54 76.301.878-76.301Z"/></g><mask id="e" width="158" height="175" x="342" y="218" maskUnits="userSpaceOnUse" style="mask-type:alpha"><path fill="#D9D9D9" d="M342 218h157.358v174.034H342z"/></mask><g mask="url(#e)"><path fill="#383838" d="M419.717 391.57h79.64V254.843l-76.339-36.848L188.12 332.27v59.3h62.295l170.383-93.837-1.081 93.837Z"/></g><mask id="f" width="103" height="175" x="0" y="139" maskUnits="userSpaceOnUse" style="mask-type:alpha"><path fill="#D9D9D9" d="M0 139h102.077v174.034H0z"/></mask><g mask="url(#f)"><path fill="#383838" d="M-59.118 307.654h-76.095V172.555l72.94-36.409L162.17 249.119v58.594h-59.523l-162.855-92.72 1.032 92.72.058-.059Z"/></g></svg>